<svg width="24" height="24" viewBox="0 0 24 24" fill="none" xmlns="http://www.w3.org/2000/svg">
<g id="paper-airplane" clip-path="url(#clip0_115_500)">
<path id="Icon" fill-rule="evenodd" clip-rule="evenodd" d="M2.38752 4.06868L3.57125 10.8751H10.875C11.4963 10.8751 12 11.3787 12 12.0001C12 12.6214 11.4963 13.1251 10.875 13.1251H3.57125L2.38752 19.9314L20.8941 12.0001L2.38752 4.06868ZM1.48312 12.0001L0.0955122 4.02131C-0.0166647 3.37629 0.192048 2.71703 0.654992 2.25408C1.23667 1.67241 2.11389 1.50347 2.86999 1.82751L22.9735 10.4433C23.5962 10.7102 24 11.3225 24 12.0001C24 12.6776 23.5962 13.2899 22.9735 13.5568L2.86999 22.1726C2.11389 22.4967 1.23667 22.3277 0.654992 21.7461C0.192048 21.2831 -0.016665 20.6238 0.0955122 19.9788L1.48312 12.0001Z" fill="#8E8E93"/>
</g>
<defs>
<clipPath id="clip0_115_500">
<rect width="24" height="24" fill="white"/>
</clipPath>
</defs>
</svg>
